<?xml version="1.0" encoding="utf-8"?>
<!-- Uploaded to: SVG Repo, www.svgrepo.com, Generator: SVG Repo Mixer Tools -->
<svg width="800px" height="800px" viewBox="0 0 1024 1024" class="icon"  version="1.1" xmlns="http://www.w3.org/2000/svg"><path d="M0 352v608a64 64 0 0 0 64 64h896a64 64 0 0 0 64-64V352H0z" fill="#EAEAEA" /><path d="M448 608h128v416h-128zM640 608h128v416h-128zM256 608h128v416H256zM64 608h128v416H64zM832 608h128v416h-128z" fill="#434854" /><path d="M448 608h128v32h-128zM640 608h128v32h-128zM256 608h128v32H256zM64 608h128v32H64zM832 608h128v32h-128z" fill="" /><path d="M0 352h1024v32H0z" fill="" /><path d="M512 0c-141.376 0-256 96-256 256h512c0-160-114.624-256-256-256z" fill="#EF4D4D" /><path d="M128 416a64 64 0 0 0-64 64v64h128v-64a64 64 0 0 0-64-64zM320 416a64 64 0 0 0-64 64v64h128v-64a64 64 0 0 0-64-64zM512 416a64 64 0 0 0-64 64v64h128v-64a64 64 0 0 0-64-64zM704 416a64 64 0 0 0-64 64v64h128v-64a64 64 0 0 0-64-64zM896 416a64 64 0 0 0-64 64v64h128v-64a64 64 0 0 0-64-64z" fill="#469FCC" /><path d="M1024 352V286.016A30.016 30.016 0 0 0 993.984 256H30.016A30.016 30.016 0 0 0 0 286.016V352h1024z" fill="#EF4D4D" /><path d="M128 416a64 64 0 0 0-64 64v32a64 64 0 0 1 128 0v-32a64 64 0 0 0-64-64zM320 416a64 64 0 0 0-64 64v32a64 64 0 0 1 128 0v-32a64 64 0 0 0-64-64zM512 416a64 64 0 0 0-64 64v32a64 64 0 0 1 128 0v-32a64 64 0 0 0-64-64zM704 416a64 64 0 0 0-64 64v32a64 64 0 0 1 128 0v-32a64 64 0 0 0-64-64zM896 416a64 64 0 0 0-64 64v32a64 64 0 0 1 128 0v-32a64 64 0 0 0-64-64z" fill="" /><path d="M257.696 224A324.16 324.16 0 0 0 256 256h512c0-11.008-0.672-21.632-1.696-32H257.696z" fill="" /><path d="M238.24 1024A126.656 126.656 0 0 0 256 960a128 128 0 0 0-256 0c0 23.424 6.752 45.088 17.76 64h220.48zM896 832a127.744 127.744 0 0 0-116.224 75.04A94.848 94.848 0 0 0 736 896a96 96 0 0 0-96 96c0 11.296 2.304 21.952 5.888 32h360.384A126.944 126.944 0 0 0 1024 960a128 128 0 0 0-128-128z" fill="#3AAD73" /><path d="M779.776 907.04A94.848 94.848 0 0 0 736 896a96 96 0 0 0-96 96c0 11.296 2.304 21.952 5.888 32h139.872A126.656 126.656 0 0 1 768 960c0-18.944 4.384-36.768 11.776-52.96z" fill="" /></svg>