<?xml version="1.0" encoding="iso-8859-1"?>
<!-- Uploaded to: SVG Repo, www.svgrepo.com, Generator: SVG Repo Mixer Tools -->
<svg version="1.1" id="Layer_1" xmlns="http://www.w3.org/2000/svg" xmlns:xlink="http://www.w3.org/1999/xlink" 
	 viewBox="0 0 512 512" xml:space="preserve">
<polyline style="fill:#84DCCF;" points="23.935,104.065 7.285,104.065 7.285,489.106 504.715,489.106 504.715,104.065 
	199.805,104.065 "/>
<g>
	<circle style="fill:#FFFFFF;" cx="239.974" cy="440.705" r="16.03"/>
	<circle style="fill:#FFFFFF;" cx="352.177" cy="440.705" r="16.029"/>
</g>
<g>
	<rect x="392.252" y="256.364" style="fill:#F5F2E7;" width="80.151" height="32.059"/>
	<rect x="392.252" y="312.466" style="fill:#F5F2E7;" width="80.151" height="32.059"/>
</g>
<circle style="fill:#FBB03B;" cx="239.974" cy="272.39" r="16.03"/>
<rect x="215.925" y="136.138" style="fill:#FFFFFF;" width="256.479" height="88.164"/>
<circle style="fill:#F15A24;" cx="296.075" cy="272.39" r="16.03"/>
<rect x="215.925" y="136.138" style="fill:#E6E6E6;" width="72.138" height="88.164"/>
<circle style="fill:#FBB03B;" cx="352.177" cy="272.39" r="16.029"/>
<circle style="fill:#F15A24;" cx="239.974" cy="328.502" r="16.03"/>
<circle style="fill:#FBB03B;" cx="296.075" cy="328.502" r="16.03"/>
<circle style="fill:#F15A24;" cx="352.177" cy="328.502" r="16.029"/>
<circle style="fill:#FBB03B;" cx="239.974" cy="384.604" r="16.03"/>
<circle style="fill:#F15A24;" cx="296.075" cy="384.604" r="16.03"/>
<g>
	<circle style="fill:#FBB03B;" cx="352.177" cy="384.604" r="16.029"/>
	<circle style="fill:#FBB03B;" cx="296.075" cy="440.705" r="16.03"/>
</g>
<polyline style="fill:#027EA8;" points="7.285,104.083 7.285,104.083 7.285,489.106 143.61,489.106 143.61,104.065 55.154,104.065 
	"/>
<path style="fill:#84DCCF;" d="M111.733,464.751L111.733,464.751c-39.838,0-72.134-32.296-72.134-72.134V120.113
	c0-39.838,32.296-72.134,72.134-72.134l0,0c39.838,0,72.134,32.296,72.134,72.134v272.505
	C183.866,432.456,151.571,464.751,111.733,464.751z"/>
<path style="fill:#027EA8;" d="M71.805,408.648V136.143c0-39.838,32.222-72.134,72.061-72.134c5.188,0,10.199,0.572,15.076,1.613
	c-12.652-10.963-29.162-17.643-47.217-17.643c-39.839,0-72.18,32.296-72.18,72.134v272.505c0,34.652,24.543,63.57,57.121,70.521
	C81.402,449.912,71.805,430.43,71.805,408.648z"/>
<g>
	<path style="fill:#FFFFFF;" d="M79.089,256H63.48V120.113c0-26.501,21.854-48.062,47.87-48.062v15.61
		c-17.691,0-32.26,14.558-32.26,32.453V256z"/>
	<rect x="63.48" y="272.65" style="fill:#FFFFFF;" width="15.61" height="32.26"/>
	<rect x="63.48" y="320.52" style="fill:#FFFFFF;" width="15.61" height="15.61"/>
</g>
<polygon points="512,496.39 0,496.39 0,96.78 23.935,96.78 23.935,112.39 15.61,112.39 15.61,480.78 496.39,480.78 496.39,112.39 
	199.805,112.39 199.805,96.78 512,96.78 "/>
<path d="M480.205,232.111H208.121V128.337h272.084V232.111z M223.73,216.501h240.865v-72.554H223.73V216.501z"/>
<rect x="240.39" y="192.52" width="23.935" height="15.61"/>
<rect x="271.61" y="192.52" style="fill:#F15A24;" width="24.976" height="15.61"/>
<rect x="303.87" y="192.52" width="23.935" height="15.61"/>
<path d="M239.971,296.229c-13.142,0-23.834-10.692-23.834-23.834s10.692-23.834,23.834-23.834c13.142,0,23.834,10.692,23.834,23.834
	C263.805,285.537,253.113,296.229,239.971,296.229z M239.971,264.17c-4.534,0-8.224,3.689-8.224,8.224
	c0,4.535,3.69,8.224,8.224,8.224s8.224-3.689,8.224-8.224C248.195,267.86,244.505,264.17,239.971,264.17z"/>
<path d="M296.074,296.229c-13.142,0-23.834-10.692-23.834-23.834s10.692-23.834,23.834-23.834c13.142,0,23.834,10.692,23.834,23.834
	C319.908,285.537,309.217,296.229,296.074,296.229z M296.074,264.17c-4.534,0-8.224,3.689-8.224,8.224
	c0,4.535,3.69,8.224,8.224,8.224c4.534,0,8.224-3.689,8.224-8.224C304.299,267.86,300.609,264.17,296.074,264.17z"/>
<path d="M352.178,296.229c-13.142,0-23.834-10.692-23.834-23.834s10.692-23.834,23.834-23.834c13.143,0,23.835,10.692,23.835,23.834
	C376.013,285.537,365.321,296.229,352.178,296.229z M352.178,264.17c-4.534,0-8.224,3.689-8.224,8.224
	c0,4.535,3.69,8.224,8.224,8.224c4.535,0,8.225-3.689,8.225-8.224C360.403,267.86,356.713,264.17,352.178,264.17z"/>
<path d="M239.971,352.333c-13.142,0-23.834-10.692-23.834-23.834c0-13.142,10.692-23.835,23.834-23.835
	c13.142,0,23.834,10.692,23.834,23.835C263.805,341.641,253.113,352.333,239.971,352.333z M239.971,320.274
	c-4.534,0-8.224,3.689-8.224,8.225c0,4.535,3.69,8.224,8.224,8.224s8.224-3.689,8.224-8.224S244.505,320.274,239.971,320.274z"/>
<path d="M296.074,352.333c-13.142,0-23.834-10.692-23.834-23.834c0-13.142,10.692-23.835,23.834-23.835
	c13.142,0,23.834,10.692,23.834,23.835C319.908,341.641,309.217,352.333,296.074,352.333z M296.074,320.274
	c-4.534,0-8.224,3.689-8.224,8.225c0,4.535,3.69,8.224,8.224,8.224c4.534,0,8.224-3.689,8.224-8.224
	C304.299,323.964,300.609,320.274,296.074,320.274z"/>
<path d="M352.178,352.333c-13.142,0-23.834-10.692-23.834-23.834c0-13.142,10.692-23.835,23.834-23.835
	c13.143,0,23.835,10.692,23.835,23.835C376.013,341.641,365.321,352.333,352.178,352.333z M352.178,320.274
	c-4.534,0-8.224,3.689-8.224,8.225c0,4.535,3.69,8.224,8.224,8.224c4.535,0,8.225-3.689,8.225-8.224
	S356.713,320.274,352.178,320.274z"/>
<path d="M239.971,408.438c-13.142,0-23.834-10.692-23.834-23.835c0-13.142,10.692-23.834,23.834-23.834
	c13.142,0,23.834,10.692,23.834,23.834C263.805,397.745,253.113,408.438,239.971,408.438z M239.971,376.378
	c-4.534,0-8.224,3.689-8.224,8.224c0,4.535,3.69,8.225,8.224,8.225s8.224-3.689,8.224-8.225
	C248.195,380.067,244.505,376.378,239.971,376.378z"/>
<path d="M296.074,408.438c-13.142,0-23.834-10.692-23.834-23.835c0-13.142,10.692-23.834,23.834-23.834
	c13.142,0,23.834,10.692,23.834,23.834C319.908,397.745,309.217,408.438,296.074,408.438z M296.074,376.378
	c-4.534,0-8.224,3.689-8.224,8.224c0,4.535,3.69,8.225,8.224,8.225c4.534,0,8.224-3.689,8.224-8.225
	C304.299,380.067,300.609,376.378,296.074,376.378z"/>
<path d="M352.178,408.438c-13.142,0-23.834-10.692-23.834-23.835c0-13.142,10.692-23.834,23.834-23.834
	c13.143,0,23.835,10.692,23.835,23.834C376.013,397.745,365.321,408.438,352.178,408.438z M352.178,376.378
	c-4.534,0-8.224,3.689-8.224,8.224c0,4.535,3.69,8.225,8.224,8.225c4.535,0,8.225-3.689,8.225-8.225
	C360.403,380.067,356.713,376.378,352.178,376.378z"/>
<path d="M239.971,464.541c-13.142,0-23.834-10.692-23.834-23.834c0-13.142,10.692-23.835,23.834-23.835
	c13.142,0,23.834,10.692,23.834,23.835C263.805,453.849,253.113,464.541,239.971,464.541z M239.971,432.482
	c-4.534,0-8.224,3.689-8.224,8.225c0,4.535,3.69,8.224,8.224,8.224s8.224-3.689,8.224-8.224
	C248.195,436.171,244.505,432.482,239.971,432.482z"/>
<path d="M296.074,464.541c-13.142,0-23.834-10.692-23.834-23.834c0-13.142,10.692-23.835,23.834-23.835
	c13.142,0,23.834,10.692,23.834,23.835C319.908,453.849,309.217,464.541,296.074,464.541z M296.074,432.482
	c-4.534,0-8.224,3.689-8.224,8.225c0,4.535,3.69,8.224,8.224,8.224c4.534,0,8.224-3.689,8.224-8.224
	C304.299,436.171,300.609,432.482,296.074,432.482z"/>
<path d="M352.178,464.541c-13.142,0-23.834-10.692-23.834-23.834c0-13.142,10.692-23.835,23.834-23.835
	c13.143,0,23.835,10.692,23.835,23.835C376.013,453.849,365.321,464.541,352.178,464.541z M352.178,432.482
	c-4.534,0-8.224,3.689-8.224,8.225c0,4.535,3.69,8.224,8.224,8.224c4.535,0,8.225-3.689,8.225-8.224
	C360.403,436.171,356.713,432.482,352.178,432.482z"/>
<path d="M111.733,40.174c-18.115,0-34.834,6.066-48.253,16.259V15.61H47.87v56.484c-10.085,13.38-16.075,30.011-16.075,48.019
	v272.505c0,44.078,35.86,79.939,79.939,79.939c44.078,0,79.939-35.861,79.939-79.939V120.113
	C191.672,76.034,155.811,40.174,111.733,40.174z M176.062,392.618c0,35.471-28.857,64.329-64.329,64.329
	c-35.471,0-64.329-28.857-64.329-64.329V120.113c0-35.471,28.858-64.329,64.329-64.329c35.472,0,64.329,28.857,64.329,64.329
	V392.618z"/>
<path d="M480.205,296.229h-95.758V248.56h95.759v47.669H480.205z M400.057,280.62h64.539v-16.45h-64.539V280.62z"/>
<path d="M480.205,352.333h-95.758v-47.669h95.759v47.669H480.205z M400.057,336.723h64.539v-16.45h-64.539V336.723z"/>
<rect x="392.325" y="376.715" width="15.61" height="15.61"/>
<rect x="416.26" y="376.715" style="fill:#FBB03B;" width="15.61" height="15.61"/>
<rect x="440.195" y="376.715" width="16.65" height="15.61"/>
<g>
	<rect x="464.13" y="376.715" style="fill:#FBB03B;" width="16.65" height="15.61"/>
	<rect x="392.325" y="408.976" style="fill:#FBB03B;" width="15.61" height="15.61"/>
</g>
<rect x="416.26" y="408.976" width="15.61" height="15.61"/>
<rect x="440.195" y="408.976" style="fill:#FBB03B;" width="16.65" height="15.61"/>
<rect x="464.13" y="408.976" width="16.65" height="15.61"/>
<rect x="392.325" y="441.236" width="15.61" height="15.61"/>
<rect x="416.26" y="441.236" style="fill:#FBB03B;" width="15.61" height="15.61"/>
<rect x="440.195" y="441.236" width="16.65" height="15.61"/>
<rect x="464.13" y="441.236" style="fill:#FBB03B;" width="16.65" height="15.61"/>
<rect x="392.325" y="151.935" style="fill:#F15A24;" width="15.61" height="15.61"/>
<rect x="416.26" y="151.935" width="15.61" height="15.61"/>
<rect x="440.195" y="151.935" style="fill:#F15A24;" width="16.65" height="15.61"/>
</svg>