<?xml version="1.0" encoding="iso-8859-1"?>
<!-- Uploaded to: SVG Repo, www.svgrepo.com, Generator: SVG Repo Mixer Tools -->
<svg version="1.1" id="Layer_1" xmlns="http://www.w3.org/2000/svg" xmlns:xlink="http://www.w3.org/1999/xlink" 
	 viewBox="0 0 508 508" xml:space="preserve">
<path style="fill:#194F82;" d="M493.9,151H303V77.2c0-7.8-6.3-14.1-14.1-14.1h-20.8v-49C268.1,6.3,261.8,0,254,0H49
	c-7.8,0-14.1,6.3-14.1,14.1v49H14.1C6.3,63.1,0,69.4,0,77.2v416.7c0,7.8,6.3,14.1,14.1,14.1h479.8c7.8,0,14.1-6.3,14.1-14.1V165.1
	C508,157.3,501.7,151,493.9,151z M63.1,28.2h176.7v34.9H63.1V28.2z M274.8,479.8H28.2V91.3h246.6L274.8,479.8L274.8,479.8z
	 M426,476.1h-69.2V388c0-19.1,15.5-34.6,34.6-34.6c19.1,0,34.6,15.5,34.6,34.6V476.1z M479.8,206.2h-63.6c-7.8,0-14.1,6.3-14.1,14.1
	s6.3,14.1,14.1,14.1h63.6v33h-35.3c-7.8,0-14.1,6.3-14.1,14.1c0,7.8,6.3,14.1,14.1,14.1h35.3v184.2h-25.5V388
	c0-34.6-28.2-62.8-62.8-62.8s-62.8,28.2-62.8,62.8v91.8H303V179.2h176.7v27H479.8z"/>
<rect x="28.2" y="91.3" style="fill:#FFFFFF;" width="246.6" height="388.5"/>
<rect x="63.1" y="28.2" style="fill:#56ACE0;" width="176.7" height="34.9"/>
<path style="fill:#FFC10D;" d="M303,479.8h25.5V388c0-34.6,28.2-62.8,62.8-62.8s62.8,28.2,62.8,62.8v91.8h25.5V295.6h-35.3
	c-7.8,0-14.1-6.3-14.1-14.1c0-7.8,6.3-14.1,14.1-14.1h35.3v-33H416c-7.8,0-14.1-6.3-14.1-14.1s6.3-14.1,14.1-14.1h63.6v-27H303
	V479.8z"/>
<path style="fill:#56ACE0;" d="M391.4,353.4c-19.1,0-34.6,15.5-34.6,34.6v88.1H426V388C426,368.9,410.5,353.4,391.4,353.4z"/>
<g>
	<rect x="79" y="143.9" style="fill:#FFC10D;" width="33.4" height="33.4"/>
	<rect x="190.6" y="143.9" style="fill:#FFC10D;" width="33.4" height="33.4"/>
	<rect x="79" y="268.8" style="fill:#FFC10D;" width="33.4" height="33.4"/>
	<rect x="190.6" y="268.8" style="fill:#FFC10D;" width="33.4" height="33.4"/>
	<rect x="79" y="393.8" style="fill:#FFC10D;" width="33.4" height="33.4"/>
	<rect x="190.6" y="393.8" style="fill:#FFC10D;" width="33.4" height="33.4"/>
</g>
<g>
	<path style="fill:#194F82;" d="M126.5,115.7H64.9c-7.8,0-14.1,6.3-14.1,14.1v61.7c0,7.8,6.3,14.1,14.1,14.1h61.7
		c7.8,0,14.1-6.3,14.1-14.1v-61.7C140.6,122,134.3,115.7,126.5,115.7z M112.4,177.3H79v-33.4h33.4V177.3z"/>
	<path style="fill:#194F82;" d="M238.2,115.7h-61.7c-7.8,0-14.1,6.3-14.1,14.1v61.7c0,7.8,6.3,14.1,14.1,14.1h61.7
		c7.8,0,14.1-6.3,14.1-14.1v-61.7C252.3,122,246,115.7,238.2,115.7z M224.1,177.3h-33.4v-33.4h33.4V177.3z"/>
	<path style="fill:#194F82;" d="M126.5,240.6H64.9c-7.8,0-14.1,6.3-14.1,14.1v61.7c0,7.8,6.3,14.1,14.1,14.1h61.7
		c7.8,0,14.1-6.3,14.1-14.1v-61.7C140.6,246.9,134.3,240.6,126.5,240.6z M112.4,302.3H79v-33.4h33.4V302.3z"/>
	<path style="fill:#194F82;" d="M238.2,240.6h-61.7c-7.8,0-14.1,6.3-14.1,14.1v61.7c0,7.8,6.3,14.1,14.1,14.1h61.7
		c7.8,0,14.1-6.3,14.1-14.1v-61.7C252.3,246.9,246,240.6,238.2,240.6z M224.1,302.3h-33.4v-33.4h33.4V302.3z"/>
	<path style="fill:#194F82;" d="M126.5,365.6H64.9c-7.8,0-14.1,6.3-14.1,14.1v61.7c0,7.8,6.3,14.1,14.1,14.1h61.7
		c7.8,0,14.1-6.3,14.1-14.1v-61.7C140.6,371.9,134.3,365.6,126.5,365.6z M112.4,427.2H79v-33.4h33.4V427.2z"/>
	<path style="fill:#194F82;" d="M238.2,365.6h-61.7c-7.8,0-14.1,6.3-14.1,14.1v61.7c0,7.8,6.3,14.1,14.1,14.1h61.7
		c7.8,0,14.1-6.3,14.1-14.1v-61.7C252.3,371.9,246,365.6,238.2,365.6z M224.1,427.2h-33.4v-33.4h33.4V427.2z"/>
</g>
</svg>