<?xml version="1.0" ?><!-- Uploaded to: SVG Repo, www.svgrepo.com, Generator: SVG Repo Mixer Tools -->
<svg width="800px" height="800px" viewBox="0 0 64 64" id="Layer_1" version="1.1" xml:space="preserve" xmlns="http://www.w3.org/2000/svg" xmlns:xlink="http://www.w3.org/1999/xlink"><style type="text/css">
	.st0{fill:#12AF76;}
	.st1{fill:#009966;}
	.st2{opacity:0.5;fill:#FFFFFF;enable-background:new    ;}
	.st3{fill:#B2B1CF;stroke:#000000;stroke-miterlimit:10;}
	.st4{fill:#8E8EB2;}
	.st5{fill:none;stroke:#000000;stroke-miterlimit:10;}
	.st6{opacity:0.5;fill:none;stroke:#FFFFFF;stroke-width:2;stroke-linecap:round;stroke-miterlimit:10;enable-background:new    ;}
	.st7{fill:#EDC620;stroke:#000000;stroke-miterlimit:10;}
</style><path class="st0" d="M43,23.9l-7.5,7.5c-0.2,0.2-0.4,0.4-0.7,0.5c-1.2,0.7-2.7,0.5-3.7-0.5l-7.5-7.5c-1.2-1.2-1.2-3.1,0-4.3l7.5-7.5  c0.7-0.5,1.5-0.8,2.3-0.8c0.5,0,1,0.1,1.5,0.4c0.2,0.1,0.5,0.3,0.7,0.5l7.5,7.5C44.3,20.8,44.3,22.8,43,23.9z"/><path class="st1" d="M34.8,11.8c-0.4-0.2-0.8-0.3-1.4-0.3c-0.1,0-0.2,0-0.2,0l1.3,1.3l6.6,6.6h1.3l-7.1-7.1  C35.2,12,35,11.9,34.8,11.8z"/><path d="M33.5,32.8c-0.9,0-1.8-0.4-2.5-1l-7.5-7.5c-1.4-1.4-1.4-3.6,0-5l7.5-7.5c1.1-1.1,2.9-1.3,4.2-0.6c0.3,0.2,0.5,0.3,0.8,0.6  l7.5,7.5c1.4,1.4,1.4,3.6,0,5L36,31.8c-0.2,0.2-0.5,0.4-0.8,0.6C34.7,32.6,34,32.8,33.5,32.8z M33.5,11.7c-0.7,0-1.3,0.3-1.8,0.8  L24.2,20c-1,1-1,2.6,0,3.6l7.5,7.5c0.8,0.8,2.1,1,3.1,0.4c0.2-0.1,0.4-0.3,0.6-0.4l7.5-7.5c1-1,1-2.6,0-3.6l-7.5-7.5  c-0.2-0.2-0.4-0.3-0.6-0.4C34.4,11.8,33.9,11.7,33.5,11.7z"/><path class="st2" d="M38.3,19.3c0-0.1,0.1-0.1,0.1-0.2L36,16.8c-1.5,1.5-3.9,1.5-5.3,0l-2.3,2.3c0,0,0.1,0.1,0.1,0.2H38.3z"/><path d="M31,17.3c1.4,1.1,3.6,1.1,5,0l2,2h1.3l-2.9-2.9c-0.2-0.2-0.5-0.2-0.7,0l0,0c-1.2,1.2-3.2,1.2-4.4,0c-0.2-0.2-0.5-0.2-0.7,0  l-2.9,2.9H29L31,17.3z"/><path class="st3" d="M51,52.8H15c-1.7,0-3-1.3-3-3v-27c0-1.7,1.3-3,3-3h36c1.7,0,3,1.3,3,3v27C54,51.5,52.7,52.8,51,52.8z"/><path class="st4" d="M54,49.8v-27c0-1.7-1.3-3-3-3h-2c1.7,0,3,1.3,3,3v27c0,1.7-1.3,3-3,3h2C52.7,52.8,54,51.5,54,49.8z"/><path class="st4" d="M48,43.8v-15c0-1.7-1.3-3-3-3h-2c1.7,0,3,1.3,3,3v15c0,1.7-1.3,3-3,3h2C46.7,46.8,48,45.5,48,43.8z"/><path class="st5" d="M51,52.8H15c-1.7,0-3-1.3-3-3v-27c0-1.7,1.3-3,3-3h36c1.7,0,3,1.3,3,3v27C54,51.5,52.7,52.8,51,52.8z"/><path class="st6" d="M14.5,30.3v-6c0-1.1,0.9-2,2-2"/><line class="st6" x1="14.5" x2="14.5" y1="48.3" y2="42.3"/><path class="st5" d="M21,46.8c-1.7,0-3-1.3-3-3v-15c0-1.7,1.3-3,3-3h24c1.7,0,3,1.3,3,3v15c0,1.7-1.3,3-3,3H21z"/><path class="st6" d="M45.5,42.3c0,1.1-0.9,2-2,2"/><path class="st6" d="M20.5,30.3c0-1.1,0.9-2,2-2"/><path class="st7" d="M10.8,39.8c-0.4,0-0.8-0.2-0.8-0.9v-5.3c0-0.5,0.3-0.8,0.8-0.8h12.7c1.3,0,2.4,1.1,2.4,2.4v2.2  c0,1.3-1.1,2.4-2.4,2.4C23.5,39.8,10.8,39.8,10.8,39.8z"/><circle class="st5" cx="22.5" cy="36.3" r="1.5"/><path class="st6" d="M51.5,48.3c0,1.1-0.9,2-2,2"/></svg>