<?xml version="1.0" encoding="iso-8859-1"?>
<!-- Uploaded to: SVG Repo, www.svgrepo.com, Generator: SVG Repo Mixer Tools -->
<svg version="1.1" id="Layer_1" xmlns="http://www.w3.org/2000/svg" xmlns:xlink="http://www.w3.org/1999/xlink" 
	 viewBox="0 0 512 512" xml:space="preserve">
<rect x="98.042" y="457.532" style="fill:#A7A9AC;" width="315.915" height="43.574"/>
<g>
	<circle style="fill:#FFDE17;" cx="52.365" cy="303.202" r="21.787"/>
	<circle style="fill:#FFDE17;" cx="459.634" cy="303.202" r="21.787"/>
	<circle style="fill:#FFDE17;" cx="415.155" cy="147.565" r="21.787"/>
	<circle style="fill:#FFDE17;" cx="96.844" cy="147.565" r="21.787"/>
</g>
<g>
	<path style="fill:#231F20;" d="M470.531,272.399c0-18.568,0-64.91,0-65.057c0-6.017-4.877-10.894-10.894-10.894H341.81
		l-6.683-61.168l69.135-45.854v27.33c-12.679,4.497-21.787,16.605-21.787,30.807c0,18.02,14.661,32.681,32.681,32.681
		s32.681-14.661,32.681-32.681c0-14.202-9.109-26.311-21.789-30.808c-0.005-14.96-0.016-46.892-0.022-47.014
		c0.071-1.244-0.064-2.513-0.44-3.757c-1.387-4.6-5.624-7.749-10.43-7.749h-88.447l-5.302-48.527C320.801,4.184,316.134,0,310.576,0
		H201.422c-0.038,0-0.075,0.005-0.113,0.005c-0.103,0.002-0.207,0.01-0.31,0.014c-5.369,0.208-9.817,4.306-10.406,9.69
		l-5.302,48.527H96.844c-4.805,0-9.043,3.148-10.43,7.749c-0.375,1.244-0.51,2.513-0.44,3.757
		c-0.005,0.122-0.016,32.053-0.022,47.014c-12.68,4.497-21.789,16.605-21.789,30.808c0,18.02,14.661,32.681,32.681,32.681
		s32.681-14.661,32.681-32.681c0-14.201-9.108-26.31-21.787-30.807v-27.33l69.135,45.853l-6.683,61.169H52.362
		c-4.703,0-8.875,3.019-10.347,7.486c-0.437,1.328-0.6,2.694-0.523,4.033c-0.005,0.124-0.017,45.974-0.022,64.431
		c-12.68,4.497-21.789,16.605-21.789,30.807c0,18.02,14.661,32.681,32.681,32.681s32.681-14.661,32.681-32.681
		c0-14.201-9.108-26.31-21.787-30.807v-43.463l95.66,70.683l-16.065,147.019H98.042c-6.017,0-10.894,4.877-10.894,10.894v43.574
		c0,6.017,4.877,10.894,10.894,10.894h315.915c6.017,0,10.894-4.877,10.894-10.894v-43.574c0-6.017-4.877-10.894-10.894-10.894
		h-44.809l-16.065-147.019l17.164-12.682c4.839-3.575,5.863-10.396,2.288-15.235c-3.575-4.839-10.398-5.864-15.235-2.288
		l-6.954,5.139l-6.154-56.318h104.553v54.163c-12.679,4.497-21.787,16.605-21.787,30.807c0,18.02,14.661,32.681,32.681,32.681
		c18.02,0,32.681-14.661,32.681-32.681C492.318,289.004,483.21,276.896,470.531,272.399z M415.155,158.457
		c-6.007,0-10.894-4.887-10.894-10.894s4.887-10.894,10.894-10.894s10.894,4.887,10.894,10.894S421.162,158.457,415.155,158.457z
		 M96.844,158.457c-6.007,0-10.894-4.887-10.894-10.894s4.887-10.894,10.894-10.894c6.007,0,10.894,4.887,10.894,10.894
		S102.85,158.457,96.844,158.457z M52.362,314.099c-6.007,0-10.894-4.887-10.894-10.894c0-6.007,4.887-10.894,10.894-10.894
		s10.894,4.887,10.894,10.894C63.255,309.212,58.369,314.099,52.362,314.099z M204.827,80.023h34.215
		c6.017,0,10.894-4.877,10.894-10.894s-4.877-10.894-10.894-10.894h-31.833l3.343-30.596l81.757,41.217l-91.001,43.385
		L204.827,80.023z M311.461,119.285h-30.297c-6.017,0-10.894,4.877-10.894,10.894c0,6.017,4.877,10.894,10.894,10.894h32.679
		l5.111,46.78l-105.892-57.078l94.721-45.158L311.461,119.285z M288.982,196.448h-96.877l5.389-49.314L288.982,196.448z
		 M289.105,218.235l-33.051,17.873l-33.051-17.873H289.105z M233.152,248.493l-49.668,26.859l5.543-50.722L233.152,248.493z
		 M256.054,260.878l42.348,22.901h-84.696L256.054,260.878z M317.859,305.566l-61.805,72.561l-61.805-72.561H317.859z
		 M278.956,248.493l44.023-23.807l5.53,50.604L278.956,248.493z M332.463,110.904l-3.374-30.88h49.933L332.463,110.904z
		 M303.925,50.314l-56.586-28.527h53.469L303.925,50.314z M132.978,80.023h49.932l-3.374,30.879L132.978,80.023z M85.436,218.235
		h82.372l-6.154,56.318L85.436,218.235z M178.527,320.709l63.216,74.218l-44.045,51.711h-32.93L178.527,320.709z M256.054,411.728
		l29.735,34.911h-59.472L256.054,411.728z M403.063,490.213H108.936v-21.787h294.128V490.213z M314.409,446.638l-44.045-51.711
		l63.12-74.105l13.748,125.816H314.409z M459.637,314.099c-6.007,0-10.894-4.887-10.894-10.894c0-6.007,4.887-10.894,10.894-10.894
		s10.894,4.887,10.894,10.894C470.531,309.212,465.644,314.099,459.637,314.099z"/>
	<path style="fill:#231F20;" d="M396.76,240.718l-2.179,1.089c-5.381,2.691-7.562,9.235-4.872,14.616
		c1.909,3.817,5.756,6.024,9.752,6.024c1.636,0,3.3-0.37,4.863-1.153l2.179-1.089c5.381-2.691,7.562-9.235,4.872-14.616
		C408.685,240.21,402.144,238.028,396.76,240.718z"/>
</g>
</svg>